<svg width="19" height="16" viewBox="0 0 19 16" fill="none" xmlns="http://www.w3.org/2000/svg">
<path d="M19 4.15138V12.9231C19 13.7391 18.6872 14.5218 18.1305 15.0988C17.5737 15.6758 16.8186 16 16.0312 16H2.96875C2.18139 16 1.42628 15.6758 0.869527 15.0988C0.312778 14.5218 0 13.7391 0 12.9231V4.15138L9.19838 9.76123C9.28976 9.81709 9.39391 9.84655 9.5 9.84655C9.60609 9.84655 9.71024 9.81709 9.80162 9.76123L19 4.15138ZM16.0312 3.80956e-08C16.7617 -0.000119035 17.4666 0.2789 18.0111 0.78368C18.5555 1.28846 18.9013 1.98356 18.9822 2.736L9.5 8.51692L0.0178126 2.736C0.0987505 1.98356 0.44451 1.28846 0.988944 0.78368C1.53338 0.2789 2.23826 -0.000119035 2.96875 3.80956e-08H16.0312Z" fill="#33394F"/>
</svg>
