<svg width="36" height="30" viewBox="0 0 36 30" fill="none" xmlns="http://www.w3.org/2000/svg">
<path d="M33.84 0H2.16C1.58713 0 1.03773 0.225764 0.632649 0.627628C0.227571 1.02949 0 1.57454 0 2.14286V27.8571C0 28.4255 0.227571 28.9705 0.632649 29.3724C1.03773 29.7742 1.58713 30 2.16 30H33.84C34.4129 30 34.9623 29.7742 35.3674 29.3724C35.7724 28.9705 36 28.4255 36 27.8571V2.14286C36 1.57454 35.7724 1.02949 35.3674 0.627628C34.9623 0.225764 34.4129 0 33.84 0ZM34.56 27.8571C34.56 28.0466 34.4841 28.2283 34.3491 28.3622C34.2141 28.4962 34.031 28.5714 33.84 28.5714H2.16C1.96904 28.5714 1.78591 28.4962 1.65088 28.3622C1.51586 28.2283 1.44 28.0466 1.44 27.8571V2.14286C1.44 1.95342 1.51586 1.77174 1.65088 1.63778C1.78591 1.50383 1.96904 1.42857 2.16 1.42857H33.84C34.031 1.42857 34.2141 1.50383 34.3491 1.63778C34.4841 1.77174 34.56 1.95342 34.56 2.14286V27.8571ZM25.92 7.85714C25.92 9.94099 25.0856 11.9395 23.6003 13.413C22.115 14.8865 20.1005 15.7143 18 15.7143C15.8995 15.7143 13.885 14.8865 12.3997 13.413C10.9144 11.9395 10.08 9.94099 10.08 7.85714C10.08 7.6677 10.1559 7.48602 10.2909 7.35207C10.4259 7.21811 10.609 7.14286 10.8 7.14286C10.991 7.14286 11.1741 7.21811 11.3091 7.35207C11.4441 7.48602 11.52 7.6677 11.52 7.85714C11.52 9.56211 12.2027 11.1972 13.4179 12.4028C14.6332 13.6084 16.2814 14.2857 18 14.2857C19.7186 14.2857 21.3668 13.6084 22.5821 12.4028C23.7973 11.1972 24.48 9.56211 24.48 7.85714C24.48 7.6677 24.5559 7.48602 24.6909 7.35207C24.8259 7.21811 25.009 7.14286 25.2 7.14286C25.391 7.14286 25.5741 7.21811 25.7091 7.35207C25.8441 7.48602 25.92 7.6677 25.92 7.85714Z" fill="#33394F"/>
</svg>
