<svg width="34" height="30" viewBox="0 0 34 30" fill="none" xmlns="http://www.w3.org/2000/svg">
<path d="M11 1L16.5 5L17 5.5L20.5 2.5L24.5 1L28.5 1.5L31 4L33 8C33.4 8.8 33.1667 11 33 12L30 16.5C27.8333 18.6667 23.5 23.1 23.5 23.5C23.5 23.9 19.1667 27.3333 17 29L12 25L3.5 17L1.5 12.5L0.5 9L1.5 5L5.5 1.5L11 1Z" fill="#F7D05E"/>
<path d="M17 30L16.4 29.4949C3.5 18.8889 0 15.1515 0 9.09091C0 4.0404 4 0 9 0C13.1 0 15.4 2.32323 17 4.14141C18.6 2.32323 20.9 0 25 0C30 0 34 4.0404 34 9.09091C34 15.1515 30.5 18.8889 17.6 29.4949L17 30ZM9 2.0202C5.1 2.0202 2 5.15152 2 9.09091C2 14.2424 5.2 17.6768 17 27.3737C28.8 17.6768 32 14.2424 32 9.09091C32 5.15152 28.9 2.0202 25 2.0202C21.5 2.0202 19.6 4.14141 18.1 5.85859L17 7.17172L15.9 5.85859C14.4 4.14141 12.5 2.0202 9 2.0202Z" fill="#F7D05E"/>
</svg>
