<svg width="36" height="29" viewBox="0 0 36 29" fill="none" xmlns="http://www.w3.org/2000/svg">
<path d="M6.5512 28.9358V27.0111C6.5512 26.2732 6.11849 25.7921 5.3768 25.7921C5.00603 25.7921 4.60428 25.9204 4.32613 26.3375C4.10992 25.9846 3.80094 25.7921 3.3374 25.7921C3.02828 25.7921 2.71945 25.8883 2.47212 26.2412V25.8563H1.8232V28.9358H2.47212V27.2356C2.47212 26.6904 2.75027 26.4336 3.18298 26.4336C3.61541 26.4336 3.83191 26.7224 3.83191 27.2356V28.9358H4.48083V27.2356C4.48083 26.6904 4.78967 26.4336 5.19141 26.4336C5.62412 26.4336 5.84034 26.7224 5.84034 27.2356V28.9358H6.5512ZM16.1613 25.8563H15.1108V24.926H14.4619V25.8563H13.8748V26.4656H14.4618V27.8773C14.4618 28.5831 14.7399 29 15.4816 29C15.7597 29 16.0686 28.9038 16.2851 28.7755L16.0995 28.198C15.9142 28.3263 15.6979 28.3585 15.5434 28.3585C15.2344 28.3585 15.1108 28.166 15.1108 27.8451V26.4656H16.1613V25.8563ZM21.6619 25.792C21.2911 25.792 21.0439 25.9846 20.8893 26.2412V25.8563H20.2404V28.9358H20.8893V27.2036C20.8893 26.6904 21.1056 26.4016 21.5073 26.4016C21.6309 26.4016 21.7855 26.4338 21.909 26.4658L22.0944 25.8243C21.9708 25.7921 21.7855 25.792 21.6619 25.792ZM13.3494 26.1129C13.0403 25.8883 12.6077 25.7921 12.1442 25.7921C11.4027 25.7921 10.9083 26.177 10.9083 26.7865C10.9083 27.2999 11.2791 27.5885 11.928 27.6848L12.237 27.717C12.5769 27.781 12.7623 27.8773 12.7623 28.0377C12.7623 28.2622 12.5151 28.4226 12.0824 28.4226C11.6498 28.4226 11.3099 28.2622 11.0935 28.1019L10.7846 28.6151C11.1245 28.8717 11.588 29 12.0514 29C12.9167 29 13.4112 28.5831 13.4112 28.0056C13.4112 27.4602 13.0095 27.1714 12.3914 27.0753L12.0824 27.0431C11.8043 27.011 11.588 26.947 11.588 26.7545C11.588 26.5299 11.8043 26.4016 12.1442 26.4016C12.5151 26.4016 12.8859 26.5619 13.0713 26.6582L13.3494 26.1129ZM30.5924 25.7921C30.2215 25.7921 29.9743 25.9846 29.8197 26.2412V25.8563H29.1708V28.9358H29.8197V27.2036C29.8197 26.6904 30.0361 26.4016 30.4377 26.4016C30.5614 26.4016 30.716 26.4338 30.8396 26.4658L31.025 25.8243C30.9014 25.7921 30.716 25.7921 30.5924 25.7921ZM22.3108 27.3961C22.3108 28.3263 22.9287 29 23.8868 29C24.3194 29 24.6283 28.9038 24.9373 28.6472L24.6283 28.1019C24.3812 28.2943 24.134 28.3905 23.8558 28.3905C23.3305 28.3905 22.9597 28.0056 22.9597 27.3961C22.9597 26.8187 23.3305 26.4336 23.8558 26.4016C24.134 26.4016 24.3812 26.4978 24.6283 26.6904L24.9373 26.145C24.6283 25.8883 24.3194 25.7921 23.8868 25.7921C22.9287 25.7921 22.3108 26.4658 22.3108 27.3961ZM28.3057 25.8563H27.6567V26.2412C27.4404 25.9526 27.1314 25.7921 26.7297 25.7921C25.8954 25.7921 25.2464 26.4658 25.2464 27.3961C25.2464 28.3263 25.8954 29 26.7297 29C27.1622 29 27.4714 28.8397 27.6567 28.5509V28.9358H28.3057V25.8563ZM25.9262 27.3961C25.9262 26.8507 26.2661 26.4016 26.8223 26.4016C27.3476 26.4016 27.7185 26.8187 27.7185 27.3961C27.7185 27.9414 27.3476 28.3905 26.8223 28.3905C26.2661 28.3583 25.9262 27.9414 25.9262 27.3961ZM18.1701 25.7921C17.3048 25.7921 16.6867 26.4336 16.6867 27.3961C16.6867 28.3585 17.3046 29 18.2009 29C18.6335 29 19.0662 28.8717 19.4061 28.5831L19.097 28.1019C18.8498 28.2943 18.5408 28.4226 18.2319 28.4226C17.8301 28.4226 17.4284 28.2302 17.3356 27.6847H19.5297V27.4282C19.5607 26.4336 19.0045 25.7921 18.1701 25.7921ZM18.1701 26.3695C18.5717 26.3695 18.8499 26.6262 18.9116 27.1074H17.3666C17.4284 26.6904 17.7065 26.3695 18.1701 26.3695ZM34.2696 24.6372H33.6207V26.2412C33.4043 25.9526 33.0953 25.7921 32.6936 25.7921C31.8593 25.7921 31.2103 26.4658 31.2103 27.3961C31.2103 28.3263 31.8593 29 32.6936 29C33.1263 29 33.4353 28.8397 33.6207 28.5509V28.9358H34.2696V24.6372ZM31.8902 27.3961C31.8902 26.8507 32.23 26.4016 32.7864 26.4016C33.3117 26.4016 33.6825 26.8187 33.6825 27.3961C33.6825 27.9414 33.3117 28.3905 32.7864 28.3905C32.23 28.3583 31.8902 27.9414 31.8902 27.3961ZM10.1974 25.8563H9.5485V26.2412C9.33215 25.9526 9.02317 25.7921 8.62143 25.7921C7.78711 25.7921 7.13819 26.4658 7.13819 27.3961C7.13819 28.3263 7.78711 29 8.62143 29C9.05414 29 9.36311 28.8397 9.5485 28.5509V28.9358H10.1974V25.8563ZM7.78711 27.3961C7.78711 26.8507 8.12706 26.4016 8.68322 26.4016C9.20856 26.4016 9.57947 26.8187 9.57947 27.3961C9.57947 27.9414 9.20856 28.3905 8.68322 28.3905C8.12706 28.3583 7.78711 27.9414 7.78711 27.3961Z" fill="#32394D"/>
<path d="M13.133 2.47009H22.8669V20.6272H13.133V2.47009Z" fill="#666F8A"/>
<path d="M13.7512 11.5487C13.7512 7.85958 15.4198 4.58739 17.9845 2.47008C16.0997 0.930279 13.7203 0 11.1246 0C4.97504 0 0 5.16476 0 11.5487C0 17.9325 4.97504 23.0974 11.1245 23.0974C13.7202 23.0974 16.0995 22.1671 17.9845 20.6272C15.4198 18.542 13.7512 15.2378 13.7512 11.5487Z" fill="#32394D"/>
<path d="M36 11.5487C36 17.9325 31.025 23.0974 24.8755 23.0974C22.2798 23.0974 19.9005 22.1671 18.0155 20.6272C20.6112 18.51 22.249 15.2378 22.249 11.5487C22.249 7.85958 20.5802 4.58739 18.0155 2.47008C19.9003 0.930279 22.2798 0 24.8755 0C31.025 0 36 5.19691 36 11.5487Z" fill="#495169"/>
</svg>
