<svg width="92" height="29" viewBox="0 0 92 29" fill="none" xmlns="http://www.w3.org/2000/svg">
<path d="M0.000832679 14.4745C0.000798953 9.82094 0.000938207 5.16735 0.00124897 0.513756C0.00134774 -0.0597298 -0.0383388 0.00920955 0.503783 0.00876869C2.99922 0.00673871 5.49466 0.00625984 7.99009 0.00733585C10.2959 0.00505929 12.1885 1.52715 12.7527 3.83306C13.5483 7.08526 14.3994 10.323 15.2257 13.5671C15.5012 14.6488 15.7774 15.7303 16.0441 16.8143C16.108 17.0739 16.1891 17.2364 16.5033 17.2347C16.828 17.2329 16.8831 17.0405 16.9461 16.7928C17.5396 14.4601 18.1356 12.1281 18.7342 9.79683C19.2367 7.82496 19.7364 5.85232 20.2332 3.87891C20.7514 1.82455 22.005 0.559883 24.0193 0.123228C24.3508 0.0514527 24.6885 0.0144817 25.0272 0.0128771C27.5439 0.00388547 30.0606 0.0140875 32.5772 0.000456746C32.9 -0.00128679 32.9909 0.0908168 32.9906 0.423784C32.9827 9.80779 32.9828 19.1918 32.9908 28.5758C32.9911 28.9119 32.8957 28.9982 32.5755 28.9964C30.1227 28.9828 27.6697 28.9891 25.2167 28.989C24.7977 28.989 24.7968 28.9884 24.7968 28.5613C24.7967 23.1285 24.7966 17.6957 24.7967 12.2629C24.7967 11.8076 24.7309 11.7258 24.3342 11.8046C24.2651 11.8286 24.202 11.8684 24.1497 11.921C24.0973 11.9735 24.057 12.0375 24.0317 12.1083C23.6768 13.3264 23.3419 14.5507 23.0028 15.7737C22.3716 18.05 21.7409 20.3264 21.1107 22.6029C20.5612 24.5842 20.0047 26.5635 19.4662 28.548C19.3794 28.868 19.2643 29.0052 18.9091 28.9999C17.2741 28.9754 15.6386 28.9823 14.0034 28.9959C13.7274 28.9982 13.6173 28.9026 13.5435 28.6337C12.8033 25.9339 12.049 23.2383 11.3013 20.5407C10.7171 18.4329 10.1348 16.3246 9.55441 14.2157C9.35936 13.5098 9.14929 12.8078 8.97302 12.0969C8.88953 11.7602 8.67725 11.7424 8.41799 11.7613C8.12727 11.7825 8.20195 12.0161 8.20183 12.1839C8.19806 17.5728 8.19702 22.9618 8.19868 28.3507C8.19868 28.4166 8.19888 28.4824 8.19869 28.5483C8.19747 28.9882 8.19745 28.9889 7.784 28.989C6.10622 28.9893 4.42843 28.9893 2.75065 28.9891C2.00733 28.9891 1.264 28.9913 0.520686 28.9883C-0.0559926 28.9859 0.00170007 29.0612 0.00153385 28.4353C0.000298832 23.7817 6.50108e-05 19.1281 0.000832679 14.4745Z" fill="#32394D"/>
<path d="M44.6964 0.0312939C44.6964 0.218724 44.6964 0.370069 44.6964 0.521417C44.6963 5.91011 44.6981 11.2988 44.7016 16.6875C44.7019 16.8766 44.5759 17.1556 44.9079 17.2175C45.2634 17.2838 45.3867 17.2052 45.5371 16.8375C47.3952 12.2933 49.2529 7.74881 51.1101 3.20416C51.6275 1.93464 52.4052 0.921074 53.6419 0.339155C54.1027 0.11434 54.6061 -0.00151012 55.1156 1.48621e-05C57.3985 0.0183569 59.6815 0.00781919 61.9645 0.00791633C62.4416 0.00793626 62.4422 0.00818643 62.4422 0.484399C62.4423 9.83505 62.4423 19.1857 62.4421 28.5364C62.4421 28.9882 62.4412 28.989 62.0058 28.9891C59.5742 28.9894 57.1426 28.9894 54.711 28.9891C54.2529 28.9891 54.2525 28.9888 54.2525 28.4954C54.2524 23.0628 54.2523 17.6303 54.2522 12.1978C54.2521 11.7621 54.2076 11.7049 53.7985 11.7729C53.7272 11.7926 53.6608 11.828 53.6038 11.8765C53.5467 11.925 53.5004 11.9856 53.468 12.0542C52.4701 14.5104 51.4886 16.9736 50.4978 19.4329C49.5724 21.7298 48.6731 24.039 47.6987 26.3136C47.0899 27.7346 45.9443 28.5613 44.5064 28.9593C44.3604 28.9884 44.2113 28.9981 44.0629 28.9881C41.6737 28.9896 39.2846 28.9834 36.8955 28.996C36.585 28.9977 36.5026 28.9008 36.5028 28.5871C36.5099 19.1926 36.511 9.79801 36.5061 0.403454C36.506 0.155455 36.5231 -0.000496765 36.8392 0.00105623C39.3557 0.0134142 41.8723 0.00780969 44.3889 0.00882468C44.4725 0.00885457 44.5562 0.020687 44.6964 0.0312939Z" fill="#32394D"/>
<path d="M66.1069 28.989C66.0964 28.8291 66.0808 28.7008 66.0808 28.5725C66.0795 23.5899 66.0793 18.6072 66.0801 13.6246C66.0801 13.1824 66.083 13.1791 66.5003 13.1791C74.6871 13.1787 82.8739 13.1788 91.0607 13.1793C91.4834 13.1793 91.4932 13.193 91.3402 13.5967C90.3419 16.2295 88.6313 18.1502 86.0626 19.1985C85.0662 19.5865 84.0075 19.7752 82.9429 19.7547C80.2034 19.7546 77.4638 19.7546 74.7243 19.7548C74.2693 19.7548 74.2682 19.7551 74.2681 20.2357C74.2677 23.0014 74.2677 25.7671 74.2679 28.5328C74.2678 28.9888 74.267 28.989 73.8376 28.989C71.3953 28.989 68.9531 28.9891 66.5109 28.989H66.1069Z" fill="#32394D"/>
<path d="M91.9895 10.4199C91.956 10.8232 91.9224 11.2265 91.8888 11.6298C91.8902 11.6714 91.8828 11.7128 91.8669 11.751C91.851 11.7892 91.827 11.8233 91.7968 11.8507C91.7666 11.8782 91.7309 11.8984 91.6922 11.9099C91.6535 11.9213 91.6129 11.9237 91.5732 11.9169C91.4883 11.9141 91.4033 11.9184 91.3184 11.9183C88.0693 11.9171 84.8203 11.9154 81.5712 11.9131C80.1911 11.9108 78.8107 11.9095 77.431 11.8793C75.077 11.8277 72.9259 11.0884 70.9688 9.74987C68.5378 8.08732 66.8181 5.81842 65.7603 3.0265C65.4334 2.16387 65.2547 1.24146 65.0048 0.347396C64.9363 0.102342 65.0141 -0.00965729 65.2628 0.0100459C65.305 0.013391 65.3477 0.00990263 65.3902 0.00989391C71.3574 0.008881 77.3247 0.00748392 83.2919 0.00569804C84.2698 0.00114863 85.2381 0.204598 86.1367 0.603401C86.0417 0.603704 85.947 0.592431 85.8545 0.569819C84.3178 -0.00719626 82.7321 0.0220825 81.1386 0.161382C80.7697 0.193638 80.4026 0.252636 80.0358 0.307391C79.8198 0.339646 79.6943 0.442181 79.7246 0.706215C79.7442 0.95594 79.7484 1.20671 79.7372 1.45698C79.7273 2.45104 79.7027 3.44511 79.706 4.43909C79.7093 5.41003 79.7566 6.38093 79.7541 7.35176C79.751 8.55759 79.7077 9.76332 79.7048 10.9691C79.7043 11.1643 79.7719 11.4719 79.8969 11.533C80.2098 11.6912 80.5517 11.7788 80.8998 11.79C84.3934 11.8079 87.8871 11.8021 91.3807 11.8017C91.773 11.8017 91.8209 11.742 91.862 11.3259C91.892 11.0226 91.9461 10.7218 91.9895 10.4199Z" fill="#495169"/>
<path d="M91.9895 10.4199C91.9461 10.7218 91.892 11.0226 91.862 11.3259C91.8209 11.742 91.773 11.8017 91.3807 11.8017C87.8871 11.8021 84.3934 11.8079 80.8998 11.79C80.5517 11.7788 80.2098 11.6912 79.8969 11.533C79.7719 11.4719 79.7043 11.1643 79.7048 10.9691C79.7077 9.76332 79.751 8.55759 79.7541 7.35176C79.7566 6.38093 79.7093 5.41003 79.706 4.43909C79.7027 3.44511 79.7273 2.45104 79.7372 1.45698C79.7484 1.20671 79.7442 0.95594 79.7246 0.706215C79.6943 0.442181 79.8198 0.339646 80.0358 0.307391C80.4026 0.252636 80.7697 0.193638 81.1386 0.161382C82.7321 0.0220825 84.3178 -0.00719626 85.8545 0.569819C85.947 0.592431 86.0417 0.603704 86.1367 0.603401C87.0811 0.94395 87.9486 1.47976 88.6864 2.17807C91.0525 4.37852 92.1191 7.14566 91.9895 10.4199Z" fill="#32394D"/>
</svg>
