<svg width="46" height="44" viewBox="0 0 46 44" fill="none" xmlns="http://www.w3.org/2000/svg">
<path d="M41.1017 2H28.6905C28.3046 1.99973 27.9343 2.14493 27.6605 2.40385L2.84829 26.0288C2.30499 26.5487 2 27.2522 2 27.9856C2 28.7189 2.30499 29.4225 2.84829 29.9423L14.6636 41.1923C15.2096 41.7096 15.9485 42 16.7187 42C17.4889 42 18.2278 41.7096 18.7737 41.1923L43.5758 17.5769C43.8478 17.3162 44.0002 16.9636 44 16.5962V4.76923C44.0018 4.40589 43.9282 4.04577 43.7833 3.70962C43.6385 3.37347 43.4252 3.06791 43.1559 2.81054C42.8865 2.55316 42.5663 2.34905 42.2138 2.20995C41.8612 2.07084 41.4833 1.99949 41.1017 2V2Z" stroke="white" stroke-width="4" stroke-linecap="round" stroke-linejoin="round"/>
<path d="M35.5 13C34.8078 13 34.1311 12.7947 33.5555 12.4101C32.9799 12.0256 32.5313 11.4789 32.2664 10.8394C32.0015 10.1999 31.9322 9.49612 32.0673 8.81719C32.2023 8.13825 32.5356 7.51461 33.0251 7.02513C33.5146 6.53564 34.1383 6.2023 34.8172 6.06725C35.4961 5.9322 36.1999 6.00152 36.8394 6.26642C37.4789 6.53133 38.0256 6.97993 38.4101 7.55551C38.7947 8.13108 39 8.80777 39 9.5C39 10.4283 38.6313 11.3185 37.9749 11.9749C37.3185 12.6313 36.4283 13 35.5 13Z" fill="white"/>
</svg>
