<svg width="24" height="25" viewBox="0 0 24 25" fill="none" xmlns="http://www.w3.org/2000/svg">
<path d="M8.80304 1.07343e-06C10.4982 -0.000828409 12.1575 0.479089 13.5814 1.38204C15.0053 2.28498 16.1332 3.57251 16.8294 5.08978C17.5256 6.60704 17.7605 8.28944 17.5058 9.93463C17.2511 11.5798 16.5177 13.1178 15.3937 14.3635L24 23.9531L22.8056 25L14.2206 15.4523C13.1163 16.3002 11.8217 16.8768 10.4444 17.1341C9.06716 17.3914 7.64722 17.322 6.30286 16.9315C4.95849 16.541 3.72863 15.8409 2.71571 14.8894C1.70279 13.9379 0.936134 12.7625 0.479605 11.4613C0.0230732 10.16 -0.110117 8.77052 0.0911293 7.40851C0.292376 6.0465 0.822231 4.7514 1.63656 3.63111C2.45089 2.51081 3.52612 1.59774 4.77269 0.967949C6.01925 0.33816 7.40107 0.00988599 8.80304 0.0104701V1.07343e-06ZM8.80304 15.7035C10.7122 15.7035 12.5432 14.959 13.8932 13.6338C15.2432 12.3085 16.0016 10.5111 16.0016 8.63694C16.0016 6.76276 15.2432 4.96535 13.8932 3.64011C12.5432 2.31487 10.7122 1.57035 8.80304 1.57035C6.89387 1.57035 5.06288 2.31487 3.71289 3.64011C2.3629 4.96535 1.60448 6.76276 1.60448 8.63694C1.60448 10.5111 2.3629 12.3085 3.71289 13.6338C5.06288 14.959 6.89387 15.7035 8.80304 15.7035Z" fill="#6C7080" fill-opacity="0.58"/>
</svg>
