<svg width="44" height="29" viewBox="0 0 44 29" fill="none" xmlns="http://www.w3.org/2000/svg">
<path d="M1.76 0C0.788172 0 0 0.826962 0 1.84713V27.1529C0 28.173 0.788568 29 1.76 29H42.24C43.2118 29 44 28.173 44 27.1529V1.84713C44 0.827008 43.2114 0 42.24 0H1.76ZM26.279 8.64255C27.3499 8.64255 28.2081 8.89081 28.7554 9.12165L28.3814 11.5908L28.1339 11.4594C27.624 11.2286 26.9692 11.0064 26.0659 11.0222C24.9845 11.0222 24.4846 11.5284 24.4846 12.0021C24.4783 12.5358 25.0687 12.8877 26.0342 13.4148C27.6278 14.228 28.3643 15.214 28.3539 16.5102C28.3324 18.8753 26.4477 20.4036 23.5441 20.4036C22.3054 20.3893 21.112 20.1141 20.4669 19.7961L20.8546 17.2447L21.2108 17.4266C22.1179 17.8519 22.7053 18.024 23.8109 18.024C24.6048 18.024 25.4569 17.6751 25.4636 16.9114C25.4688 16.4127 25.1075 16.0571 24.0322 15.4986C22.9845 14.9535 21.5955 14.0404 21.6109 12.4032C21.6273 10.1885 23.5497 8.64255 26.279 8.64255ZM3.89123 9.00478H8.35036C8.95083 9.02861 9.43562 9.23151 9.603 9.91537L10.5641 15.122C10.5643 15.1224 10.564 15.1243 10.5641 15.1248L10.8529 16.6848L13.5602 9.00478H16.489L12.1357 20.2463L9.20973 20.2492L6.8805 11.178C8.26641 11.9486 9.44632 12.8402 10.1296 14.0671C9.95346 13.6789 9.72132 13.2406 9.42427 12.8087C9.07834 12.3057 8.33127 11.6563 8.019 11.3801C6.93088 10.4174 5.45314 9.63987 3.85686 9.22847L3.89123 9.00478ZM17.6536 9.01775H20.5178L18.7261 20.242H15.862L17.6536 9.01775ZM33.8305 9.01775H36.0003L38.2718 20.242H35.6675C35.6675 20.242 35.4091 18.9525 35.3251 18.5594C34.9158 18.5594 32.053 18.5551 31.7309 18.5551C31.6219 18.8589 31.1396 20.242 31.1396 20.242H28.193L32.3606 9.95C32.6557 9.21863 33.1587 9.01775 33.8305 9.01775ZM34.0436 12.0367C33.9027 12.4542 33.6573 13.1284 33.6737 13.0988C33.6737 13.0988 32.7921 15.5665 32.5614 16.2072L34.8782 16.2057C34.663 15.1354 34.4476 14.0652 34.232 12.995L34.0436 12.0368V12.0367Z" fill="#32394D"/>
</svg>
