<svg width="16" height="21" viewBox="0 0 16 21" fill="none" xmlns="http://www.w3.org/2000/svg">
<path fill-rule="evenodd" clip-rule="evenodd" d="M7.67086 20.8937L8 20.4171L7.67086 20.8937ZM8.32914 20.8937L8.33143 20.8925L8.33714 20.8884L8.35429 20.875L8.42172 20.8254C8.47886 20.7823 8.56229 20.7193 8.66743 20.6364C8.87771 20.4719 9.176 20.2298 9.532 19.9189C10.4665 19.1035 11.3404 18.2182 12.1463 17.2705C14.0366 15.0386 16 11.853 16 8.21117C16 6.03529 15.1577 3.94692 13.6583 2.40688C12.9172 1.64468 12.0357 1.03963 11.0646 0.626557C10.0935 0.213485 9.05201 0.000547374 8 0C6.94803 0.00047096 5.90654 0.213317 4.93546 0.626288C3.96438 1.03926 3.08289 1.6442 2.34171 2.4063C0.840814 3.94985 -0.00100744 6.03685 9.0481e-07 8.21175C9.0481e-07 11.853 1.96343 15.0386 3.85371 17.2705C4.65964 18.2182 5.53348 19.1035 6.468 19.9189C6.82457 20.2298 7.12229 20.4719 7.33257 20.6364C7.43571 20.7176 7.53991 20.7973 7.64514 20.8756L7.66343 20.8884L7.66857 20.8925L7.67086 20.8937C7.868 21.0354 8.132 21.0354 8.32914 20.8937ZM8 20.4171L8.32914 20.8937L8 20.4171ZM10.8571 8.16684C10.8571 8.9404 10.5561 9.68228 10.0203 10.2293C9.48449 10.7763 8.75776 11.0836 8 11.0836C7.24224 11.0836 6.51551 10.7763 5.9797 10.2293C5.44388 9.68228 5.14286 8.9404 5.14286 8.16684C5.14286 7.39327 5.44388 6.65139 5.9797 6.1044C6.51551 5.55741 7.24224 5.25011 8 5.25011C8.75776 5.25011 9.48449 5.55741 10.0203 6.1044C10.5561 6.65139 10.8571 7.39327 10.8571 8.16684Z" fill="#33394F"/>
</svg>
